<svg data-v-423bf9ae="" xmlns="http://www.w3.org/2000/svg" viewBox="0 0 769 90" class="iconLeft"><!----><!----><!----><g data-v-423bf9ae="" id="44fdbdea-544e-4e26-9eb9-54329edbe5cb" fill="#371C00" transform="matrix(5.714285714285714,0,0,5.714285714285714,146.9222025956426,-3.057143109185354)"><path d="M9.11 3.75L5.22 10.16L5.22 13.55L3.84 13.55L3.84 10.14L-0.06 3.75L1.44 3.75L4.58 8.92L7.73 3.75L9.11 3.75ZM13.51 13.64L13.51 13.64Q12.40 13.64 11.52 13.15L11.52 13.15L11.52 13.15Q10.64 12.66 10.14 11.79L10.14 11.79L10.14 11.79Q9.65 10.93 9.65 9.84L9.65 9.84L9.65 9.84Q9.65 8.75 10.14 7.89L10.14 7.89L10.14 7.89Q10.64 7.03 11.52 6.54L11.52 6.54L11.52 6.54Q12.40 6.06 13.51 6.06L13.51 6.06L13.51 6.06Q14.62 6.06 15.49 6.54L15.49 6.54L15.49 6.54Q16.37 7.03 16.86 7.89L16.86 7.89L16.86 7.89Q17.36 8.75 17.36 9.84L17.36 9.84L17.36 9.84Q17.36 10.93 16.86 11.79L16.86 11.79L16.86 11.79Q16.37 12.66 15.49 13.15L15.49 13.15L15.49 13.15Q14.62 13.64 13.51 13.64L13.51 13.64ZM13.51 12.46L13.51 12.46Q14.22 12.46 14.79 12.13L14.79 12.13L14.79 12.13Q15.36 11.80 15.68 11.21L15.68 11.21L15.68 11.21Q16.00 10.61 16.00 9.84L16.00 9.84L16.00 9.84Q16.00 9.07 15.68 8.48L15.68 8.48L15.68 8.48Q15.36 7.88 14.79 7.56L14.79 7.56L14.79 7.56Q14.22 7.24 13.51 7.24L13.51 7.24L13.51 7.24Q12.80 7.24 12.23 7.56L12.23 7.56L12.23 7.56Q11.66 7.88 11.33 8.48L11.33 8.48L11.33 8.48Q11.00 9.07 11.00 9.84L11.00 9.84L11.00 9.84Q11.00 10.61 11.33 11.21L11.33 11.21L11.33 11.21Q11.66 11.80 12.23 12.13L12.23 12.13L12.23 12.13Q12.80 12.46 13.51 12.46L13.51 12.46ZM24.79 6.13L26.14 6.13L26.14 13.55L24.86 13.55L24.86 12.43L24.86 12.43Q24.46 13.01 23.79 13.32L23.79 13.32L23.79 13.32Q23.13 13.64 22.34 13.64L22.34 13.64L22.34 13.64Q20.86 13.64 20.01 12.82L20.01 12.82L20.01 12.82Q19.15 12.00 19.15 10.40L19.15 10.40L19.15 6.13L20.50 6.13L20.50 10.25L20.50 10.25Q20.50 11.33 21.01 11.88L21.01 11.88L21.01 11.88Q21.53 12.43 22.50 12.43L22.50 12.43L22.50 12.43Q23.56 12.43 24.18 11.79L24.18 11.79L24.18 11.79Q24.79 11.14 24.79 9.97L24.79 9.97L24.79 6.13ZM32.45 12.15L32.87 13.12L32.87 13.12Q32.58 13.37 32.14 13.50L32.14 13.50L32.14 13.50Q31.71 13.64 31.25 13.64L31.25 13.64L31.25 13.64Q30.13 13.64 29.51 13.03L29.51 13.03L29.51 13.03Q28.90 12.43 28.90 11.31L28.90 11.31L28.90 7.24L27.64 7.24L27.64 6.13L28.90 6.13L28.90 4.51L30.24 4.51L30.24 6.13L32.37 6.13L32.37 7.24L30.24 7.24L30.24 11.26L30.24 11.26Q30.24 11.86 30.54 12.18L30.54 12.18L30.54 12.18Q30.84 12.50 31.40 12.50L31.40 12.50L31.40 12.50Q32.02 12.50 32.45 12.15L32.45 12.15ZM40.07 6.13L41.41 6.13L41.41 13.55L40.14 13.55L40.14 12.43L40.14 12.43Q39.73 13.01 39.07 13.32L39.07 13.32L39.07 13.32Q38.40 13.64 37.62 13.64L37.62 13.64L37.62 13.64Q36.13 13.64 35.28 12.82L35.28 12.82L35.28 12.82Q34.43 12.00 34.43 10.40L34.43 10.40L34.43 6.13L35.77 6.13L35.77 10.25L35.77 10.25Q35.77 11.33 36.29 11.88L36.29 11.88L36.29 11.88Q36.81 12.43 37.77 12.43L37.77 12.43L37.77 12.43Q38.84 12.43 39.45 11.79L39.45 11.79L39.45 11.79Q40.07 11.14 40.07 9.97L40.07 9.97L40.07 6.13ZM47.91 6.06L47.91 6.06Q48.99 6.06 49.84 6.54L49.84 6.54L49.84 6.54Q50.69 7.01 51.18 7.87L51.18 7.87L51.18 7.87Q51.66 8.72 51.66 9.84L51.66 9.84L51.66 9.84Q51.66 10.96 51.18 11.82L51.18 11.82L51.18 11.82Q50.69 12.68 49.84 13.16L49.84 13.16L49.84 13.16Q48.99 13.64 47.91 13.64L47.91 13.64L47.91 13.64Q47.08 13.64 46.40 13.31L46.40 13.31L46.40 13.31Q45.71 12.99 45.26 12.38L45.26 12.38L45.26 13.55L43.97 13.55L43.97 3.16L45.32 3.16L45.32 7.25L45.32 7.25Q45.77 6.66 46.44 6.36L46.44 6.36L46.44 6.36Q47.11 6.06 47.91 6.06L47.91 6.06ZM47.80 12.46L47.80 12.46Q48.51 12.46 49.08 12.13L49.08 12.13L49.08 12.13Q49.64 11.80 49.97 11.21L49.97 11.21L49.97 11.21Q50.30 10.61 50.30 9.84L50.30 9.84L50.30 9.84Q50.30 9.07 49.97 8.48L49.97 8.48L49.97 8.48Q49.64 7.88 49.08 7.56L49.08 7.56L49.08 7.56Q48.51 7.24 47.80 7.24L47.80 7.24L47.80 7.24Q47.10 7.24 46.52 7.56L46.52 7.56L46.52 7.56Q45.95 7.88 45.63 8.48L45.63 8.48L45.63 8.48Q45.30 9.07 45.30 9.84L45.30 9.84L45.30 9.84Q45.30 10.61 45.63 11.21L45.63 11.21L45.63 11.21Q45.95 11.80 46.52 12.13L46.52 12.13L46.52 12.13Q47.10 12.46 47.80 12.46L47.80 12.46ZM60.23 9.88L60.23 9.88Q60.23 10.04 60.20 10.29L60.20 10.29L54.18 10.29L54.18 10.29Q54.31 11.27 55.04 11.87L55.04 11.87L55.04 11.87Q55.78 12.46 56.87 12.46L56.87 12.46L56.87 12.46Q58.20 12.46 59.01 11.56L59.01 11.56L59.75 12.43L59.75 12.43Q59.25 13.02 58.50 13.33L58.50 13.33L58.50 13.33Q57.75 13.64 56.83 13.64L56.83 13.64L56.83 13.64Q55.65 13.64 54.74 13.15L54.74 13.15L54.74 13.15Q53.83 12.67 53.33 11.80L53.33 11.80L53.33 11.80Q52.84 10.93 52.84 9.84L52.84 9.84L52.84 9.84Q52.84 8.76 53.32 7.90L53.32 7.90L53.32 7.90Q53.80 7.03 54.65 6.54L54.65 6.54L54.65 6.54Q55.50 6.06 56.56 6.06L56.56 6.06L56.56 6.06Q57.62 6.06 58.46 6.54L58.46 6.54L58.46 6.54Q59.29 7.03 59.76 7.90L59.76 7.90L59.76 7.90Q60.23 8.76 60.23 9.88L60.23 9.88ZM56.56 7.20L56.56 7.20Q55.59 7.20 54.94 7.78L54.94 7.78L54.94 7.78Q54.29 8.37 54.18 9.32L54.18 9.32L58.94 9.32L58.94 9.32Q58.83 8.39 58.18 7.79L58.18 7.79L58.18 7.79Q57.53 7.20 56.56 7.20L56.56 7.20ZM64.23 13.55L64.23 4.97L60.87 4.97L60.87 3.75L68.98 3.75L68.98 4.97L65.62 4.97L65.62 13.55L64.23 13.55ZM73.49 13.64L73.49 13.64Q72.38 13.64 71.50 13.15L71.50 13.15L71.50 13.15Q70.62 12.66 70.12 11.79L70.12 11.79L70.12 11.79Q69.62 10.93 69.62 9.84L69.62 9.84L69.62 9.84Q69.62 8.75 70.12 7.89L70.12 7.89L70.12 7.89Q70.62 7.03 71.50 6.54L71.50 6.54L71.50 6.54Q72.38 6.06 73.49 6.06L73.49 6.06L73.49 6.06Q74.59 6.06 75.47 6.54L75.47 6.54L75.47 6.54Q76.34 7.03 76.84 7.89L76.84 7.89L76.84 7.89Q77.34 8.75 77.34 9.84L77.34 9.84L77.34 9.84Q77.34 10.93 76.84 11.79L76.84 11.79L76.84 11.79Q76.34 12.66 75.47 13.15L75.47 13.15L75.47 13.15Q74.59 13.64 73.49 13.64L73.49 13.64ZM73.49 12.46L73.49 12.46Q74.20 12.46 74.77 12.13L74.77 12.13L74.77 12.13Q75.33 11.80 75.66 11.21L75.66 11.21L75.66 11.21Q75.98 10.61 75.98 9.84L75.98 9.84L75.98 9.84Q75.98 9.07 75.66 8.48L75.66 8.48L75.66 8.48Q75.33 7.88 74.77 7.56L74.77 7.56L74.77 7.56Q74.20 7.24 73.49 7.24L73.49 7.24L73.49 7.24Q72.77 7.24 72.21 7.56L72.21 7.56L72.21 7.56Q71.64 7.88 71.31 8.48L71.31 8.48L71.31 8.48Q70.98 9.07 70.98 9.84L70.98 9.84L70.98 9.84Q70.98 10.61 71.31 11.21L71.31 11.21L71.31 11.21Q71.64 11.80 72.21 12.13L72.21 12.13L72.21 12.13Q72.77 12.46 73.49 12.46L73.49 12.46ZM89.82 13.55L88.48 13.55L88.47 6.41L84.92 12.36L84.28 12.36L80.74 6.45L80.74 13.55L79.39 13.55L79.39 3.75L80.54 3.75L84.63 10.64L88.66 3.75L89.81 3.75L89.82 13.55ZM96.59 3.75L96.59 3.75Q98.49 3.75 99.58 4.66L99.58 4.66L99.58 4.66Q100.67 5.57 100.67 7.17L100.67 7.17L100.67 7.17Q100.67 8.76 99.58 9.67L99.58 9.67L99.58 9.67Q98.49 10.58 96.59 10.58L96.59 10.58L94.16 10.58L94.16 13.55L92.76 13.55L92.76 3.75L96.59 3.75ZM96.54 9.37L96.54 9.37Q97.87 9.37 98.57 8.80L98.57 8.80L98.57 8.80Q99.27 8.23 99.27 7.17L99.27 7.17L99.27 7.17Q99.27 6.10 98.57 5.54L98.57 5.54L98.57 5.54Q97.87 4.97 96.54 4.97L96.54 4.97L94.16 4.97L94.16 9.37L96.54 9.37ZM105.83 7.87L105.83 7.87Q107.27 8.01 108.02 8.76L108.02 8.76L108.02 8.76Q108.78 9.51 108.78 10.67L108.78 10.67L108.78 10.67Q108.78 11.51 108.36 12.19L108.36 12.19L108.36 12.19Q107.94 12.87 107.11 13.26L107.11 13.26L107.11 13.26Q106.27 13.66 105.07 13.66L105.07 13.66L105.07 13.66Q104.02 13.66 103.05 13.35L103.05 13.35L103.05 13.35Q102.09 13.03 101.47 12.47L101.47 12.47L102.12 11.37L102.12 11.37Q102.62 11.84 103.40 12.13L103.40 12.13L103.40 12.13Q104.19 12.42 105.07 12.42L105.07 12.42L105.07 12.42Q106.16 12.42 106.77 11.96L106.77 11.96L106.77 11.96Q107.38 11.49 107.38 10.68L107.38 10.68L107.38 10.68Q107.38 9.87 106.78 9.42L106.78 9.42L106.78 9.42Q106.18 8.97 104.96 8.97L104.96 8.97L104.17 8.97L104.17 7.99L106.64 4.97L101.92 4.97L101.92 3.75L108.39 3.75L108.39 4.70L105.83 7.87Z"></path></g><!----><g data-v-423bf9ae="" id="be460e68-c219-46d4-8ea8-013663e43fc7" transform="matrix(1.466991242060494,0,0,1.466991242060494,-9.491831234757669,-28.024589185518053)" stroke="none" fill="#F05000"><path d="M91.648 29.694c-1.056-4.57-4.81-7.938-9.327-8.441-10.699-1.191-21.527-1.934-32.309-1.928-10.782-.006-21.611.737-32.311 1.928-4.517.503-8.269 3.871-9.324 8.441-1.501 6.506-1.52 13.607-1.52 20.307 0 6.699 0 13.8 1.502 20.307 1.056 4.566 4.808 7.938 9.325 8.438 10.699 1.191 21.527 1.934 32.31 1.929 10.782.005 21.611-.737 32.309-1.929 4.518-.501 8.271-3.872 9.327-8.438 1.501-6.507 1.512-13.608 1.512-20.307 0-6.699.008-13.801-1.494-20.307M64.711 51.988l-20.34 10.997c-2.022 1.094-3.677.107-3.677-2.191V39.207c0-2.299 1.654-3.286 3.677-2.192l20.34 10.998c2.023 1.092 2.023 2.882 0 3.975"></path></g><!----></svg>